<svg version="1.2" xmlns="http://www.w3.org/2000/svg" viewBox="0 0 359 136" width="359" height="136"><defs><clipPath clipPathUnits="userSpaceOnUse" id="cp1"><path d="m-169-309h750v750h-750z"/></clipPath><clipPath clipPathUnits="userSpaceOnUse" id="cp2"><path d="m-17.28 58.93l84.93-71.47 31.87 37.88-84.93 71.46z"/></clipPath></defs><style>.a{display:none;fill:#fff}.b{fill:#7daf8a}</style><g clip-path="url(#cp1)"><path class="a" d="m-169 440.9h750v-750h-750zm0 0h750v-750h-750z"/><g clip-path="url(#cp2)"><path fill-rule="evenodd" d="m36.2 44.6l3.6-3 2.9 3.5-3.5 3zm33.6 2c-12.5-12.3-24-17.2-34.3-10.8 15.5-30.3 63.6-10.4 63.6-10.4-32.3-0.4-29.3 21.2-29.3 21.2zm-29.6 2.7l3.5-2.9 3 3.5-3.5 3zm5-4.3l3.6-3 3 3.6-3.6 3zm-3.9-4.8l3.5-2.9 3 3.5-3.6 3zm-26.8 56.3c0 0-11.5-50.8 21.1-60.9-8.1 9.1-5.3 21.3 4.8 35.7 0 0-20.8-6.7-25.9 25.2zm23.3-83.2c7.9-6.4 15.8 3 8.1 9.7-7.8 6.4-15.8-3.1-8.1-9.7zm-28.3 23.8c7.3-7 16 1.8 8.8 9.1-7.3 7-15.9-1.8-8.8-9.1z"/></g><path class="b" d="m102.9 56.4v27h-31.1v-27h-15.9v68.6h15.9v-28.1h31.1v28.1h15.9v-68.6zm92.9 68.6l-15.4-22c8.9-3.9 14.1-11.4 14.1-21.7 0-15.4-11.4-24.9-29.8-24.9h-29.7v68.6h15.9v-19.1h13.8 0.8l13.2 19.1zm-17.3-43.7c0 7.4-4.9 11.9-14.6 11.9h-12.9v-23.9h12.9c9.7 0 14.6 4.4 14.6 12zm105.9 43.7l-0.2-68.6h-13l-25.3 42.6-25.7-42.6h-13.1v68.6h14.9v-40.3l20.1 33h7.2l20.1-33.9 0.1 41.2zm38.9 1.2c19.6 0 29.1-9.8 29.1-21.3 0-25.2-39.9-16.5-39.9-29.1 0-4.3 3.6-7.8 13-7.8 6.1 0 12.6 1.7 19 5.4l4.9-12.1c-6.4-4-15.2-6.1-23.8-6.1-19.5 0-28.9 9.7-28.9 21.4 0 25.5 39.9 16.6 39.9 29.5 0 4.2-3.8 7.3-13.3 7.3-8.2 0-16.8-2.9-22.6-7.1l-5.4 11.9c6.1 4.7 17.1 8 28 8z"/></g></svg>